<svg width="384.38203125" height="384.38203125" viewBox="0 0 329.68750000000006 329.68750000000006"
    class="looka-1j8o68f">
    <defs id="SvgjsDefs1289">
</defs>
    <g id="SvgjsG1290" featurekey="rootContainer"
        transform="matrix(3.264232673267327,0,0,3.264232673267327,1.1596881304191738e-14,1.1596881304191738e-14)"
        fill="#111111">
        <path xmlns="http://www.w3.org/2000/svg"
            d="M100.5 101h-6a.5.5 0 0 1 0-1h6a.5.5 0 0 1 0 1zm-10 0h-6a.5.5 0 0 1 0-1h6a.5.5 0 0 1 0 1zm-10 0h-6a.5.5 0 0 1 0-1h6a.5.5 0 0 1 0 1zm-10 0h-6a.5.5 0 0 1 0-1h6a.5.5 0 0 1 0 1zm-10 0h-6a.5.5 0 0 1 0-1h6a.5.5 0 0 1 0 1zm-10 0h-6a.5.5 0 0 1 0-1h6a.5.5 0 0 1 0 1zm-10 0h-6a.5.5 0 0 1 0-1h6a.5.5 0 0 1 0 1zm-10 0h-6a.5.5 0 0 1 0-1h6a.5.5 0 0 1 0 1zm-10 0h-6a.5.5 0 0 1 0-1h6a.5.5 0 0 1 0 1zm-10 0h-6a.5.5 0 0 1 0-1h6a.5.5 0 0 1 0 1zm-10 0a.5.5 0 0 1-.5-.5v-6a.5.5 0 0 1 1 0v6a.5.5 0 0 1-.5.5zm100-4a.5.5 0 0 1-.5-.5v-6a.5.5 0 0 1 1 0v6a.5.5 0 0 1-.5.5zM.5 91a.5.5 0 0 1-.5-.5v-6a.5.5 0 0 1 1 0v6a.5.5 0 0 1-.5.5zm100-4a.5.5 0 0 1-.5-.5v-6a.5.5 0 0 1 1 0v6a.5.5 0 0 1-.5.5zM.5 81a.5.5 0 0 1-.5-.5v-6a.5.5 0 0 1 1 0v6a.5.5 0 0 1-.5.5zm100-4a.5.5 0 0 1-.5-.5v-6a.5.5 0 0 1 1 0v6a.5.5 0 0 1-.5.5zM.5 71a.5.5 0 0 1-.5-.5v-6a.5.5 0 0 1 1 0v6a.5.5 0 0 1-.5.5zm100-4a.5.5 0 0 1-.5-.5v-6a.5.5 0 0 1 1 0v6a.5.5 0 0 1-.5.5zM.5 61a.5.5 0 0 1-.5-.5v-6a.5.5 0 0 1 1 0v6a.5.5 0 0 1-.5.5zm100-4a.5.5 0 0 1-.5-.5v-6a.5.5 0 0 1 1 0v6a.5.5 0 0 1-.5.5zM.5 51a.5.5 0 0 1-.5-.5v-6a.5.5 0 0 1 1 0v6a.5.5 0 0 1-.5.5zm100-4a.5.5 0 0 1-.5-.5v-6a.5.5 0 0 1 1 0v6a.5.5 0 0 1-.5.5zM.5 41a.5.5 0 0 1-.5-.5v-6a.5.5 0 0 1 1 0v6a.5.5 0 0 1-.5.5zm100-4a.5.5 0 0 1-.5-.5v-6a.5.5 0 0 1 1 0v6a.5.5 0 0 1-.5.5zM.5 31a.5.5 0 0 1-.5-.5v-6a.5.5 0 0 1 1 0v6a.5.5 0 0 1-.5.5zm100-4a.5.5 0 0 1-.5-.5v-6a.5.5 0 0 1 1 0v6a.5.5 0 0 1-.5.5zM.5 21a.5.5 0 0 1-.5-.5v-6a.5.5 0 0 1 1 0v6a.5.5 0 0 1-.5.5zm100-4a.5.5 0 0 1-.5-.5v-6a.5.5 0 0 1 1 0v6a.5.5 0 0 1-.5.5zM.5 11a.5.5 0 0 1-.5-.5v-6a.5.5 0 0 1 1 0v6a.5.5 0 0 1-.5.5zm100-4a.5.5 0 0 1-.5-.5v-6a.5.5 0 0 1 1 0v6a.5.5 0 0 1-.5.5zm-4-6h-6a.5.5 0 0 1 0-1h6a.5.5 0 0 1 0 1zm-10 0h-6a.5.5 0 0 1 0-1h6a.5.5 0 0 1 0 1zm-10 0h-6a.5.5 0 0 1 0-1h6a.5.5 0 0 1 0 1zm-10 0h-6a.5.5 0 0 1 0-1h6a.5.5 0 0 1 0 1zm-10 0h-6a.5.5 0 0 1 0-1h6a.5.5 0 0 1 0 1zm-10 0h-6a.5.5 0 0 1 0-1h6a.5.5 0 0 1 0 1zm-10 0h-6a.5.5 0 0 1 0-1h6a.5.5 0 0 1 0 1zm-10 0h-6a.5.5 0 0 1 0-1h6a.5.5 0 0 1 0 1zm-10 0h-6a.5.5 0 0 1 0-1h6a.5.5 0 0 1 0 1zm-10 0h-6a.5.5 0 0 1 0-1h6a.5.5 0 0 1 0 1z"></path>
    </g>
    <g id="SvgjsG1291" featurekey="nameFeature-0"
        transform="matrix(3.687851927060033,0,0,3.687851927060033,77.6385957545071,-22.496921712168728)"
        fill="#111111">
        <path
            d="M6.44 24.68 c-0.16 1.32 -0.44 2.88 -0.76 4.52 c0.88 -2.32 2.36 -5.36 3.56 -6.36 c0.68 -0.52 1.48 -0.76 2.32 -0.72 c2.8 0.12 4.04 2 3.52 4.68 c0 0.12 -0.04 0.24 -0.04 0.36 c0.8 -1.8 1.8 -3.6 2.72 -4.32 c0.64 -0.52 1.44 -0.76 2.28 -0.72 c2.8 0.12 4.04 2 3.56 4.68 c-0.48 2.52 -1.92 7.96 -0.92 10.28 c0.68 1.48 2.72 0.08 4.16 -4.84 c0 0 1.6 0.36 1.48 0.88 c-1 3.72 -2.36 5.72 -4.28 6.48 c-2.16 0.88 -4.88 0.12 -5.88 -2.12 c-1.68 -3.64 0.28 -8.24 0.6 -12.04 c0.08 -0.6 0 -0.96 -0.36 -0.6 c-1.8 1.72 -3.44 6.36 -4.68 10.2 c-0.24 1.2 -0.48 2.44 -0.8 3.68 c-0.72 2.84 -4.04 0 -4.04 -1.48 c0 -4.28 1.04 -7.72 1.4 -11.8 c0.04 -0.6 -0.04 -0.96 -0.4 -0.6 c-2.56 2.48 -4.88 11.12 -6.04 14.64 l0 0.16 c0 0.72 -4.28 0.8 -4 -3.28 c0.28 -4.04 1.32 -9.56 1.64 -13.48 c0.08 -1.28 5.32 -0.88 4.96 1.8 z M36.456 36.92 c-0.4 0.64 -0.8 1.24 -1.28 1.76 c-0.36 0.4 -0.76 0.68 -1.16 0.84 c-2.2 0.88 -4.88 0.12 -5.92 -2.12 c-1.68 -3.72 0.92 -11.84 0.84 -14.6 c-0.04 -1.28 5.32 -0.88 4.96 1.8 c-0.36 2.88 -2.44 9.68 -1.24 12.4 c1.52 3.4 4.88 -5.52 5.56 -11 c0.12 -1.24 0.2 -2.36 0.16 -3.2 c-0.04 -1.28 5.32 -0.88 5 1.8 c-0.28 2.32 -0.72 4.72 -1.24 7.12 c-0.48 2.24 -1 4.44 -1.56 6.72 c2.32 -1.16 4.36 -3.2 5.12 -5.96 c0.16 -0.56 1.8 -0.16 1.56 0.68 c-1.04 3.24 -4.32 6.32 -7.16 7.32 c-0.32 1.28 -0.64 2.52 -1 3.76 c-1.44 4.76 -3.36 8.88 -5.8 8.88 c-3.16 0.04 -5.72 -2.36 -5.04 -5.72 c0.76 -3.64 4.16 -6.16 7.56 -7.4 c0.16 -0.84 0.4 -1.88 0.64 -3.08 z M29.896 47.480000000000004 c-0.56 2.64 1.6 4.16 3.32 1.12 c0.76 -1.36 1.6 -4.36 2.12 -6.56 c-3.56 1.6 -5.08 3.76 -5.44 5.44 z"></path>
    </g>
    <g id="SvgjsG1292" featurekey="nameFeature-1"
        transform="matrix(2.825275211398949,0,0,2.825275211398949,76.90516479689177,155.87896275068704)"
        fill="#111111">
        <path
            d="M1.44 22.88 c-0.04 -1.28 5.32 -0.88 4.96 1.8 c-0.36 2.88 -2.44 9.72 -1.24 12.4 c0.64 1.48 2.72 0.08 4.12 -4.84 c0 0 1.64 0.36 1.48 0.88 c-1 3.72 -2.36 5.72 -4.24 6.48 c-2.2 0.88 -4.88 0.12 -5.92 -2.12 c-1.68 -3.72 0.92 -11.84 0.84 -14.6 z M3.08 10.879999999999999 c-0.4 -2 5.92 -1.68 5.48 1.12 c-0.24 1.4 -0.88 3.64 -1.6 5.64 c-1.2 3.28 -4.08 2.44 -3.96 1.8 c0.52 -2.48 0.44 -6.72 0.08 -8.56 z M12.696 13.96 c0.04 -1.28 5.68 -0.64 5.4 2.04 c-0.16 1.68 -0.76 4.2 -1.36 6.88 c2.16 -0.2 3.88 -0.4 4.16 -0.52 c0.84 -0.4 0.48 2.44 -0.8 2.52 c-0.24 0 -1.88 0.08 -3.88 0.16 c-1.08 4.8 -2.04 9.8 -1.04 12.04 c0.64 1.48 2.72 0.08 4.12 -4.84 c0 -0.04 1.64 0.32 1.48 0.92 c-1 3.68 -2.36 5.68 -4.24 6.44 c-2.2 0.88 -4.88 0.12 -5.92 -2.08 c-1.12 -2.48 -0.48 -7.36 0.36 -12.32 c-1.56 0.04 -2.76 0.08 -3.04 0.04 c-1.56 -0.2 -1.24 -1.56 -0.96 -1.56 c0.4 0 2.16 -0.16 4.32 -0.32 c0.64 -3.6 1.32 -7.08 1.4 -9.4 z M31.031999999999996 24.4 c0.88 3.92 -2.4 8.68 -5.84 8.04 c-0.2 3 0.36 5.64 2.24 5.76 c3 0.2 4.88 -3.36 5.56 -5.96 c0 -0.04 1.64 0.28 1.48 0.96 c-0.84 3.08 -2.2 5.6 -5.2 6.64 c-3.2 1.08 -7.64 -0.2 -8.84 -3.52 c-1.32 -3.72 0.12 -11 3.28 -13.6 c2.24 -1.8 6.56 -1.48 7.32 1.68 l0 0 z M26.471999999999998 26.439999999999998 c-0.48 1.24 -0.92 2.88 -1.12 4.44 c3.16 0.36 5.12 -6.52 3.56 -7.04 c-1.08 -0.36 -2.08 1.72 -2.44 2.6 z M40.087999999999994 24.68 c-0.16 1.32 -0.44 2.88 -0.76 4.52 c0.88 -2.32 2.36 -5.36 3.56 -6.36 c0.68 -0.52 1.48 -0.76 2.32 -0.72 c2.8 0.12 4.04 2 3.52 4.68 c0 0.12 -0.04 0.24 -0.04 0.36 c0.8 -1.8 1.8 -3.6 2.72 -4.32 c0.64 -0.52 1.44 -0.76 2.28 -0.72 c2.8 0.12 4.04 2 3.56 4.68 c-0.48 2.52 -1.92 7.96 -0.92 10.28 c0.68 1.48 2.72 0.08 4.16 -4.84 c0 0 1.6 0.36 1.48 0.88 c-1 3.72 -2.36 5.72 -4.28 6.48 c-2.16 0.88 -4.88 0.12 -5.88 -2.12 c-1.68 -3.64 0.28 -8.24 0.6 -12.04 c0.08 -0.6 0 -0.96 -0.36 -0.6 c-1.8 1.72 -3.44 6.36 -4.68 10.2 c-0.24 1.2 -0.48 2.44 -0.8 3.68 c-0.72 2.84 -4.04 0 -4.04 -1.48 c0 -4.28 1.04 -7.72 1.4 -11.8 c0.04 -0.6 -0.04 -0.96 -0.4 -0.6 c-2.56 2.48 -4.88 11.12 -6.04 14.64 l0 0.16 c0 0.72 -4.28 0.8 -4 -3.28 c0.28 -4.04 1.32 -9.56 1.64 -13.48 c0.08 -1.28 5.32 -0.88 4.96 1.8 z">
</path>
    </g>
</svg>