<svg width="13" height="13" viewBox="0 0 13 13" fill="none" xmlns="http://www.w3.org/2000/svg">
<path d="M12.3687 11.5528C12.3687 11.9608 12.2118 12.3375 11.8979 12.5885C11.6155 12.871 11.2075 12.9965 10.7995 12.9652C9.44995 12.8396 8.13179 12.463 6.87641 11.8981C5.68379 11.3331 4.5854 10.5485 3.64386 9.607C2.70232 8.66546 1.94907 7.567 1.35277 6.37439C0.756459 5.15039 0.411183 3.83223 0.285645 2.45131C0.285645 2.41993 0.285645 2.35715 0.285645 2.32576C0.285645 1.98053 0.411244 1.63531 0.662321 1.35285C0.944782 1.07039 1.32134 0.88208 1.69795 0.88208H3.61244C4.33429 0.88208 4.9306 1.41562 5.02475 2.13746C5.08752 2.54546 5.1503 2.98486 5.27584 3.36147C5.43276 3.86363 5.3072 4.39716 4.93058 4.77378L4.14597 5.55839C4.96196 7.03347 6.18595 8.25745 7.66102 9.07345L8.44564 8.28884C8.82226 7.91222 9.35579 7.78669 9.85795 7.94362C10.2659 8.06915 10.674 8.1633 11.082 8.19469C11.8038 8.28884 12.3374 8.88515 12.3374 9.607V11.5528H12.3687Z" fill="white"/>
</svg>
