<svg width="55" height="55" viewBox="0 0 45 45" fill="none" xmlns="http://www.w3.org/2000/svg">
<path d="M28.3175 18.9583C28.8541 17.5741 29.3959 16.1918 29.9263 14.8057C30.2871 13.861 30.8175 13.4949 31.8772 13.4949C35.2787 13.4949 38.6812 13.4949 42.0827 13.4949C43.0835 13.4949 43.3161 13.803 42.9822 14.6907C40.7635 20.6024 38.5437 26.514 36.3239 32.4247C35.9455 33.4332 35.4751 33.7432 34.3399 33.7442C30.4918 33.7461 26.6426 33.749 22.7945 33.75C22.5888 33.75 22.383 33.7374 22.1783 33.7307C22.6167 33.4274 23.0478 33.1453 23.2443 32.6121C24.3443 29.6312 25.4775 26.6599 26.5899 23.6828C27.1772 22.1112 27.7417 20.5338 28.3175 18.9583Z" fill="#F48322"/>
<path d="M19.8231 31.2733C16.403 31.2743 12.984 31.2762 9.56389 31.2762C8.35631 31.2762 7.93139 30.9825 7.58814 29.9171C5.71991 24.103 3.85374 18.288 1.98758 12.4739C1.69706 11.5668 1.95036 11.25 2.96357 11.25C6.17688 11.25 9.3902 11.25 12.6045 11.25C13.6126 11.25 14.0778 11.5746 14.3704 12.4661C14.8419 13.9035 15.3175 15.3399 15.791 16.7762C15.6928 16.8912 15.5945 17.0061 15.4963 17.1211C15.3785 17.3104 15.2254 17.4881 15.1489 17.691C13.746 21.4041 12.3668 25.126 10.9441 28.8323C10.6236 29.6669 10.5357 30.6425 9.60938 31.2279H19.7901C19.7983 31.2443 19.8087 31.2598 19.8211 31.2743L19.8231 31.2733Z" fill="#E82628"/>
<path d="M15.4963 17.1211C15.5945 17.0061 15.6928 16.8912 15.791 16.7762C16.0433 16.7395 16.2945 16.6738 16.5468 16.6729C19.7714 16.6661 22.9961 16.6671 26.2219 16.669C27.2009 16.669 27.7013 17.0206 27.9846 17.9006C28.0984 18.2522 28.2059 18.6048 28.3175 18.9583C27.7417 20.5338 27.1772 22.1112 26.5899 23.6828C25.4775 26.6599 24.3443 29.6312 23.2443 32.6121C23.0478 33.1453 22.6167 33.4274 22.1783 33.7307C21.0979 33.8234 20.5572 33.4795 20.2419 32.5059C20.1085 32.0934 19.9637 31.6848 19.8252 31.2743C19.8128 31.2607 19.8014 31.2453 19.7942 31.2279C19.7601 31.0579 19.7435 30.884 19.6908 30.7188C18.3509 26.515 17.0048 22.3131 15.6711 18.1073C15.5708 17.7905 15.5542 17.4505 15.4994 17.122L15.4963 17.1211Z" fill="#FFCD08"/>
<path d="M15.4963 17.1211C15.5511 17.4505 15.5677 17.7905 15.668 18.1073C17.0017 22.3131 18.3478 26.515 19.6877 30.7188C19.7404 30.883 19.7559 31.0579 19.7901 31.2279C16.3958 31.2279 13.0036 31.2279 9.60938 31.2279C10.5357 30.6425 10.6236 29.6669 10.9441 28.8323C12.3668 25.126 13.746 21.4041 15.1489 17.691C15.2254 17.4881 15.3785 17.3104 15.4963 17.1211Z" fill="#9D1E20"/>
</svg>
