<svg id="Layer_1" xmlns="http://www.w3.org/2000/svg" viewBox="0 0 58 58"><defs><style>.cls-1{fill:#fff;}.cls-2{fill:#ff0a55;}</style></defs><path class="cls-1" d="M57.66,29A29,29,0,1,0,24.13,57.65V37.38H16.77V29h7.36V22.61c0-7.27,4.33-11.28,11-11.28a45.15,45.15,0,0,1,6.5.56V19H37.92c-3.6,0-4.73,2.24-4.73,4.53V29h8.05L40,37.38H33.19V57.65A29,29,0,0,0,57.66,29Z"/><path class="cls-2" d="M40,37.38,41.24,29H33.19V23.56c0-2.29,1.13-4.53,4.73-4.53h3.66V11.89a45.15,45.15,0,0,0-6.5-.56c-6.62,0-10.95,4-10.95,11.28V29H16.77v8.38h7.36V57.65a29.49,29.49,0,0,0,9.06,0V37.38Z"/></svg>