<svg id="Layer_1" xmlns="http://www.w3.org/2000/svg" viewBox="0 0 58 58"><defs><style>.cls-1{fill:#fff;}.cls-2{fill:#ff0a55;}</style></defs><circle class="cls-1" cx="29" cy="29" r="29" transform="translate(-1.75 56.14) rotate(-86.44)"/><path class="cls-2" d="M46.63,24.4a7.73,7.73,0,0,0-7.74-7.74H19.11a7.73,7.73,0,0,0-7.74,7.74v9.2a7.73,7.73,0,0,0,7.74,7.74H38.89a7.73,7.73,0,0,0,7.74-7.74ZM35,29.69l-8.87,4.39c-.35.19-1.53-.06-1.53-.46v-9c0-.4,1.19-.65,1.54-.45l8.49,4.62C35,29,35.35,29.49,35,29.69Z"/></svg>