<svg xmlns="http://www.w3.org/2000/svg" viewBox="0 0 200 200"><path d="M160.5,98.69c8.86-8.87,14.11-19.75,14.11-31.5,0-.41,0-.84,0-1.25a4,4,0,0,0-8,.5c0,.24,0,.5,0,.75,0,25.36-30,46-66.86,46s-66.86-20.64-66.86-46c0-.25,0-.51,0-.76a4,4,0,1,0-8-.48c0,.41,0,.83,0,1.24,0,11.91,5.38,22.92,14.47,31.86a.43.43,0,0,0,0,.07l-8.94,18.94a4,4,0,0,0,7.24,3.41l8-17a81.43,81.43,0,0,0,26.84,13,4.26,4.26,0,0,0-.14.54l-3.11,20.71a4,4,0,0,0,7.91,1.19l3.1-20.59a102.52,102.52,0,0,0,39.24,0l3,19.76a4,4,0,0,0,7.91-1.19l-3.08-20.45a80.84,80.84,0,0,0,26.94-13.23L162,120.59a4,4,0,1,0,7.23-3.41Z"/></svg>