<svg  xmlns="http://www.w3.org/2000/svg" viewBox="0 0 72 22">
<title>RSMall</title>
<path d="M70.5,20.54H39.81A9.67,9.67,0,0,1,30,11a9.67,9.67,0,0,1,9.77-9.54H70.5ZM39.8,0A11.25,11.25,0,0,0,29.3,7.06,11.28,11.28,0,0,0,18.79,0H0V22H18.79A11.28,11.28,0,0,0,29.3,14.94,11.25,11.25,0,0,0,39.81,22H72V0ZM11.47,17,8.34,12.4H7.18V17H5V5H9c2.7,0,4.38,1.43,4.38,3.72a3.48,3.48,0,0,1-2.44,3.34l-.34.12L14,17Zm7.51.23a4.67,4.67,0,0,1-4.41-2.67l1.86-1A2.92,2.92,0,0,0,19,15.23c1.13,0,1.92-.63,1.92-1.52s-.86-1.37-1.52-1.6l-1.53-.53C16,10.9,15,9.82,15,8.28c0-2,1.6-3.47,3.89-3.47a4.45,4.45,0,0,1,4,2.31l-1.79,1A2.46,2.46,0,0,0,19,6.74c-1,0-1.7.57-1.7,1.38s.81,1.26,1.42,1.48l1.66.62c1.94.72,2.84,1.77,2.84,3.31C23.2,15.93,21.08,17.19,19,17.19ZM63.6,17H62.1V5.05h1.5Zm-7.72.18a3.61,3.61,0,0,0,3-1.51V17h1.48V8.69H58.88V10a3.59,3.59,0,0,0-3-1.45,4.22,4.22,0,0,0-4.24,4.32A4.2,4.2,0,0,0,55.88,17.14Zm.18-7.29a2.9,2.9,0,0,1,2.91,3,2.91,2.91,0,1,1-5.82,0A2.9,2.9,0,0,1,56.06,9.85ZM66.83,17H65.34V5.05h1.49ZM39,5.05l4.74,9.78L48.5,5.05h1.83V17H48.82V7.68L44.27,17H43.21L38.67,7.68V17H37.15V5.05ZM9,6.9H7.18v3.84H9A1.93,1.93,0,1,0,9,6.9Z"/></svg>