<svg width="17" height="20" viewBox="0 0 17 20" fill="none" xmlns="http://www.w3.org/2000/svg">
<path d="M12.1831 8.58061V7.21676C12.406 7.31446 12.5432 7.5005 12.596 7.77488L13.4654 7.65977C13.406 7.31045 13.2688 7.03206 13.0524 6.8246C12.8374 6.61715 12.5472 6.49 12.1818 6.44583V6.10052H11.6831V6.44583C11.2886 6.48598 10.9733 6.63454 10.7359 6.8942C10.4984 7.15385 10.3797 7.47373 10.3797 7.85518C10.3797 8.23663 10.4839 8.5525 10.6937 8.81617C10.9034 9.07984 11.2332 9.27792 11.6818 9.40775V10.8693C11.5578 10.8091 11.4456 10.7114 11.3454 10.5762C11.2451 10.441 11.1752 10.2804 11.1396 10.0944L10.2425 10.1921C10.3111 10.6498 10.4694 11.0045 10.7174 11.2561C10.9654 11.5077 11.2873 11.6576 11.6831 11.7058V12.3402H12.1818V11.6884C12.629 11.6228 12.9773 11.4462 13.2292 11.1584C13.4799 10.8706 13.6052 10.516 13.6052 10.0944C13.6052 9.71692 13.5049 9.40909 13.3057 9.16817C13.1065 8.92726 12.7319 8.73185 12.1818 8.58061H12.1831ZM11.6844 8.4133C11.5353 8.34772 11.4245 8.2634 11.3506 8.15633C11.2768 8.05059 11.2411 7.93549 11.2411 7.81235C11.2411 7.67717 11.2807 7.55404 11.3612 7.44295C11.4417 7.33186 11.5498 7.25289 11.6844 7.20605V8.4133ZM12.6026 10.6752C12.4944 10.8037 12.3546 10.8854 12.1831 10.9175V9.55631C12.3889 9.61654 12.5379 9.70354 12.629 9.81597C12.72 9.92839 12.7649 10.0636 12.7649 10.2188C12.7649 10.3928 12.7108 10.5454 12.6026 10.6739V10.6752Z" fill="#A9A9A9"/>
<path d="M12.6976 4.11564C12.6158 4.10226 12.534 4.09155 12.4535 4.08352V2.19099C12.4535 0.9824 11.4852 0 10.2939 0H2.15826C0.968314 0 0 0.9824 0 2.19099V17.809C0 19.0176 0.968314 20 2.15826 20H10.2939C11.4852 20 12.4535 19.0176 12.4535 17.809V15.4601C12.4535 15.1643 12.2174 14.9247 11.9258 14.9247C11.6343 14.9247 11.3981 15.1643 11.3981 15.4601V16.1694H1.05538V3.82922H11.3981V4.07816C9.15017 4.30703 7.24257 6.04832 6.8745 8.41598C6.74126 9.27257 6.82173 10.1439 7.108 10.955L6.25974 12.5678C6.17003 12.7391 6.17795 12.9452 6.28085 13.1085C6.38375 13.2718 6.56448 13.3655 6.75577 13.3547L8.70559 13.241C9.3995 13.8098 10.2267 14.1846 11.1132 14.3251C11.381 14.3679 11.6501 14.3893 11.9166 14.3893C12.9852 14.3893 14.0234 14.0494 14.9033 13.3989C16.0036 12.5865 16.7252 11.3886 16.9376 10.0248C17.3742 7.21007 15.4732 4.55999 12.6989 4.11698L12.6976 4.11564ZM11.3981 17.2402V17.809C11.3981 18.4274 10.9034 18.9293 10.2939 18.9293H2.15826C1.55009 18.9293 1.05538 18.4274 1.05538 17.809V17.2402H11.3981ZM1.05538 2.75848V2.19099C1.05538 1.57264 1.55009 1.07074 2.15826 1.07074H10.2939C10.9034 1.07074 11.3981 1.57264 11.3981 2.19099V2.75848H1.05538ZM15.8941 9.85746C15.5471 12.0886 13.4772 13.6184 11.2768 13.2664C10.5169 13.1446 9.80978 12.8073 9.2346 12.292C9.1383 12.205 9.01297 12.1582 8.885 12.1582C8.87445 12.1582 8.86522 12.1582 8.85466 12.1582L7.63306 12.2291L8.15151 11.2427C8.22539 11.1009 8.23331 10.9335 8.17394 10.785C7.89031 10.0903 7.8006 9.32878 7.91669 8.58195C8.26365 6.3508 10.3335 4.82099 12.534 5.17299C14.7331 5.525 16.241 7.62631 15.8941 9.85746Z" fill="#A9A9A9"/>
</svg>
