<svg xmlns="http://www.w3.org/2000/svg" viewBox="0 0 200 200"><path d="M173.42,107.39c-2.57-2.38-5-4.72-7.35-7-2-1.91-3.9-3.76-5.82-5.55l0,0,8.93-18.94A4,4,0,1,0,162,72.45L154,89.31c-7.53-6.34-15.61-11.53-26.59-14.7l2.92-19.4A4,4,0,0,0,122.45,54L119.62,72.8a111.22,111.22,0,0,0-19.77-1.61,106.86,106.86,0,0,0-20,1.72l-2.71-18a4,4,0,0,0-7.91,1.19l2.82,18.72c-11,3.32-19.18,8.68-26.67,15L37.61,73.33a4,4,0,1,0-7.23,3.42l8.78,18.6q-2.29,2.13-4.6,4.33c-2.63,2.49-5.35,5.06-8.24,7.67A4,4,0,0,0,25,110.13,4,4,0,0,0,26,113c1.34,1.47,33.38,36,73.81,36s72.46-34.51,73.8-36A4,4,0,0,0,173.42,107.39ZM99.85,141c-30.41,0-56.64-22.48-65.08-30.54,1.83-1.69,3.58-3.35,5.29-5,16.11-15.27,27.76-26.3,59.79-26.3,32.64,0,44.4,11.31,60.67,27q2.16,2.08,4.44,4.25C156.57,118.45,130.3,141,99.85,141Z"/><path d="M99.85,80.81a29.1,29.1,0,0,0-16.42,5,12.86,12.86,0,1,1-12.75,21.67c-.08.85-.12,1.71-.12,2.59A29.29,29.29,0,1,0,99.85,80.81Z"/></svg>