<svg width="12" height="22" viewBox="0 0 12 22" fill="none" xmlns="http://www.w3.org/2000/svg">
	<path d="M11.4457 0.312545L8.29271 0.230643C7.06427 0.189695 5.83578 0.681079 4.97586 1.54099C4.075 2.40091 3.58366 3.5884 3.58366 4.85779V7.84704H0.635405C0.512561 7.84704 0.430664 7.92894 0.430664 8.05178V11.819C0.430664 11.9418 0.512561 12.0237 0.635405 12.0237H3.58366V21.5238C3.58366 21.6466 3.66556 21.7285 3.7884 21.7285H7.67849C7.80134 21.7285 7.88323 21.6466 7.88323 21.5238V12.0237H10.8315C10.9543 12.0237 11.0362 11.9418 11.0362 11.819L11.5276 8.05178C11.5276 7.96988 11.5276 7.92893 11.4867 7.88798C11.4458 7.84703 11.4047 7.80608 11.3228 7.80608H7.88323V5.92246C7.88323 5.92246 7.80134 4.98065 8.29271 4.48927C8.49746 4.24358 8.82506 4.12073 9.23454 4.12073H11.4457C11.5686 4.12073 11.6505 4.03883 11.6505 3.91599V0.517286C11.6505 0.394441 11.5276 0.312545 11.4457 0.312545Z" fill="white"/>
</svg>
