<svg xmlns="http://www.w3.org/2000/svg" viewBox="0 0 26 26">
	<defs></defs>
	<title>search</title>
	<path d="M10.76,18.79a8,8,0,1,1,8-8A8,8,0,0,1,10.76,18.79ZM10.76,5a5.74,5.74,0,1,0,5.74,5.74h0A5.74,5.74,0,0,0,10.76,5Z"/>
	<path d="M21.31,23.27a1.13,1.13,0,0,1-.81-.34l-3.25-3.25a1.14,1.14,0,0,1,0-1.61h0l.81-.81a1.18,1.18,0,0,1,1.62,0l3.25,3.25a1.14,1.14,0,0,1,0,1.61h0l-.81.81A1.19,1.19,0,0,1,21.31,23.27Z"/>
	<rect x="15.9" y="15.04" width="2.29" height="4.01" transform="translate(-7.06 17.05) rotate(-45)"/>
</svg>