<svg width="20" height="20" viewBox="0 0 20 20" xmlns="http://www.w3.org/2000/svg">
<path d="M1.06873 5.31681H0V0.0892798H5.2408V1.15531H1.06873V5.31681Z" />
<path d="M19.9613 20H14.7205V18.934H18.8925V14.7725H19.9613V20Z" />
<path d="M5.2408 20H0V14.7711H1.06873V18.934H5.2408V20Z" />
<path d="M20 5.22753H18.9313V1.06603H14.7592V0H20V5.22753Z" />
<path d="M19.4282 9.51163H0.515664V10.5777H19.4282V9.51163Z" />
<path d="M8.37753 8.42561H2.76668V2.82897H8.37753V8.42561ZM3.83541 7.35958H7.3088V3.895H3.83541V7.35958Z" />
<path d="M6.37366 4.82777H4.90415V6.29356H6.37366V4.82777Z" />
<path d="M17.3282 8.42561H11.7173V2.82897H17.3282V8.42561ZM12.7861 7.35958H16.2594V3.895H12.7861V7.35958Z" />
<path d="M15.3243 4.82777H13.8548V6.29356H15.3243V4.82777Z" />
<path d="M8.24394 17.6201H2.63309V12.0235H8.24394V17.6201ZM3.70182 16.5541H7.17521V13.0895H3.70182V16.5541Z" />
<path d="M6.24006 14.0223H4.77056V15.488H6.24006V14.0223Z" />
<path d="M17.3282 14.0223H15.8587V15.488H17.3282V14.0223Z" />
<path d="M13.3658 12.1221H11.8963V13.5878H13.3658V12.1221Z" />
<path d="M14.9689 16.1197H13.4994V17.5854H14.9689V16.1197Z" />
</svg>
