<svg width="45" height="45" viewBox="0 0 45 45" xmlns="http://www.w3.org/2000/svg">
<path d="M39.1964 17.7911H13.5229C12.3902 17.7911 11.4693 18.7342 11.4693 19.8943V35.3968C11.4693 36.5568 12.3902 37.5 13.5229 37.5H39.1964C40.3291 37.5 41.25 36.5568 41.25 35.3968V19.8943C41.25 18.7342 40.3291 17.7911 39.1964 17.7911ZM39.3463 35.3968C39.3463 35.4772 39.2773 35.5503 39.1964 35.5503H13.5229C13.442 35.5503 13.373 35.4796 13.373 35.3968V19.8943C13.373 19.8114 13.442 19.7408 13.5229 19.7408H39.1964C39.2773 19.7408 39.3463 19.8114 39.3463 19.8943V35.3968Z" />
<path d="M19.4148 30.252H15.9644C15.4385 30.252 15.0125 30.6883 15.0125 31.2269C15.0125 31.7655 15.4385 32.2017 15.9644 32.2017H19.4124C19.9383 32.2017 20.3643 31.7655 20.3643 31.2269C20.3643 30.6883 19.9407 30.252 19.4148 30.252Z" />
<path d="M25.2115 30.252H21.7635C21.2376 30.252 20.8116 30.6883 20.8116 31.2269C20.8116 31.7655 21.2376 32.2017 21.7635 32.2017H25.2115C25.7374 32.2017 26.1633 31.7655 26.1633 31.2269C26.1633 30.6883 25.7374 30.252 25.2115 30.252Z" />
<path d="M31.0082 30.252H27.5602C27.0343 30.252 26.6083 30.6883 26.6083 31.2269C26.6083 31.7655 27.0343 32.2017 27.5602 32.2017H31.0082C31.5341 32.2017 31.9601 31.7655 31.9601 31.2269C31.9601 30.6883 31.5341 30.252 31.0082 30.252Z" />
<path d="M36.8073 30.3568H33.6234C33.0975 30.3568 32.6716 30.7931 32.6716 31.3317C32.6716 31.8703 33.0975 32.3065 33.6234 32.3065H36.8073C37.3332 32.3065 37.7591 31.8703 37.7591 31.3317C37.7591 30.7931 37.3332 30.3568 36.8073 30.3568Z" />
<path d="M33.7067 28.6021C35.7198 28.6021 37.357 26.9254 37.357 24.8636C37.357 22.8018 35.7198 21.125 33.7067 21.125C31.6936 21.125 30.0564 22.8018 30.0564 24.8636C30.0564 26.9254 31.6936 28.6021 33.7067 28.6021ZM33.7067 23.0772C34.6704 23.0772 35.4533 23.879 35.4533 24.866C35.4533 25.853 34.6704 26.6548 33.7067 26.6548C32.7453 26.6548 31.9601 25.853 31.9601 24.866C31.9601 23.879 32.743 23.0772 33.7067 23.0772Z" />
<path d="M7.52868 23.2307V15.4246H33.502V16.8162H35.4057V7.72823C35.4057 6.56816 34.4848 5.625 33.3521 5.625H7.6786C6.54591 5.625 5.625 6.56816 5.625 7.72823V23.2307C5.625 24.3908 6.54591 25.3339 7.6786 25.3339H10.0415V23.3842H7.6786C7.59769 23.3842 7.52868 23.3111 7.52868 23.2307ZM7.52868 13.4749V11.401H33.502V13.4749H7.52868ZM7.6786 7.57469H33.3521C33.433 7.57469 33.502 7.64537 33.502 7.72823V9.45127H7.52868V7.72823C7.52868 7.64537 7.59769 7.57469 7.6786 7.57469Z" />
</svg>
