<svg id="Layer_1" xmlns="http://www.w3.org/2000/svg" viewBox="0 0 58 58"><defs><style>.cls-1{fill:#fff;}.cls-2{fill:#ff0a55;}</style></defs><circle class="cls-1" cx="29" cy="29" r="29"/><path class="cls-2" d="M49,26.3c0-8.61-8.63-15.61-19.24-15.61s-19.24,7-19.24,15.61c0,7.72,6.85,14.18,16.09,15.4.63.14,1.48.42,1.7.95a4.09,4.09,0,0,1,.06,1.74L28.09,46c-.08.48-.38,1.9,1.67,1s11.08-6.53,15.12-11.17h0C47.66,32.85,49,29.75,49,26.3ZM23,30.9a.37.37,0,0,1-.37.37H17.21a.4.4,0,0,1-.26-.1h0a.36.36,0,0,1-.11-.26h0V22.51a.38.38,0,0,1,.38-.37h1.35a.38.38,0,0,1,.37.37v6.66H22.6a.37.37,0,0,1,.37.38Zm3.26,0a.38.38,0,0,1-.38.37H24.5a.38.38,0,0,1-.37-.37V22.51a.38.38,0,0,1,.37-.37h1.35a.38.38,0,0,1,.38.37Zm9.29,0a.38.38,0,0,1-.38.37H33.58l-.1-.1-3.84-5.19v5a.38.38,0,0,1-.38.37H27.91a.38.38,0,0,1-.37-.37V22.51a.38.38,0,0,1,.37-.37h1.58l0,0h0l0,0h0a.05.05,0,0,1,0,0l3.85,5.18v-5a.37.37,0,0,1,.37-.37h1.35a.38.38,0,0,1,.38.37Zm7.45-7a.38.38,0,0,1-.38.38H38.93v1.42h3.66A.37.37,0,0,1,43,26v1.35a.38.38,0,0,1-.38.38H38.93v1.41h3.66a.38.38,0,0,1,.38.38V30.9a.38.38,0,0,1-.38.37H37.2a.4.4,0,0,1-.26-.1h0a.4.4,0,0,1-.1-.26h0V22.52h0a.36.36,0,0,1,.1-.25h0a.36.36,0,0,1,.26-.11h5.39a.38.38,0,0,1,.38.38Z"/></svg>