<svg id="Layer_9" xmlns="http://www.w3.org/2000/svg" viewBox="0 0 40 40">
	 <title>trash</title>
	<path d="M32.67,12.67A1.51,1.51,0,0,0,31.05,14L29.33,34.51a2.17,2.17,0,0,1-2.16,2H14.42a2.19,2.19,0,0,1-2.17-2L10.67,15.67h12.4a1.5,1.5,0,0,0,0-3H7.41L9.26,34.76a5.21,5.21,0,0,0,5.16,4.74H27.17a5.21,5.21,0,0,0,5.15-4.74L34,14.29A1.51,1.51,0,0,0,32.67,12.67Z"/>
	<path d="M35.55,5.16A1.5,1.5,0,0,0,33.81,4L5.93,9a1.5,1.5,0,0,0,.26,3l.27,0L34.34,6.91A1.5,1.5,0,0,0,35.55,5.16Z"/>
	<path d="M20,20V32.17a1,1,0,0,0,2,0V20a1,1,0,0,0-2,0Z"/>
	<path d="M26,33.17a1,1,0,0,0,1-.92l1-12.17a1,1,0,1,0-2-.16L25,32.08a1,1,0,0,0,.92,1.08Z"/>
	<path d="M14.92,19A1,1,0,0,0,14,20.08l1,12.17a1,1,0,0,0,1,.92h.08A1,1,0,0,0,17,32.08L16,19.92A1,1,0,0,0,14.92,19Z"/>
	<path d="M15,6.68l2-.36-.16-.9A1.37,1.37,0,0,1,17,4.36a1.39,1.39,0,0,1,.91-.59l2.79-.5a1.41,1.41,0,0,1,1.64,1.14l.17.9,2-.36-.16-.9a3.4,3.4,0,0,0-4-2.75l-2.79.5a3.43,3.43,0,0,0-2.2,1.42,3.39,3.39,0,0,0-.55,2.55Z"/>
</svg>