<svg version="1.0" width="20" height="20" xmlns="http://www.w3.org/2000/svg" viewBox="0 0 230.000000 230.000000">
  <title>cart</title>
	<g transform="translate(0.000000,230.000000) scale(0.100000,-0.100000)" fill="#000000" stroke="none">
		<path d="M980 2174 c-105 -27 -199 -83 -286 -169 -104 -102 -158 -200 -188
-337 l-6 -28 -160 0 -161 0 3 -617 3 -618 29 -60 c38 -77 114 -153 191 -191
l60 -29 680 0 680 0 60 29 c77 38 153 114 191 191 l29 60 3 618 3 617 -116 0
-115 0 0 -95 0 -95 26 0 25 0 -3 -487 c-3 -454 -4 -490 -22 -523 -26 -49 -64
-88 -111 -113 -40 -22 -44 -22 -650 -22 -606 0 -610 0 -650 22 -47 25 -86 65
-109 110 -14 28 -16 91 -16 523 l0 490 65 0 65 0 0 -78 c0 -70 3 -81 25 -102
35 -33 98 -32 133 4 27 26 27 29 33 204 6 194 13 222 76 319 164 251 537 274
732 45 41 -47 84 -127 96 -175 l7 -27 -416 0 -416 0 0 -95 0 -95 425 0 425 0
0 -78 c0 -70 3 -81 25 -102 35 -33 98 -32 133 4 l27 27 -1 167 c-1 192 -13
255 -71 372 -52 104 -179 231 -283 283 -41 20 -102 44 -135 52 -75 19 -261 19
-335 -1z"/>
	</g>
</svg>
