<svg width="45" height="45" viewBox="0 0 45 45" xmlns="http://www.w3.org/2000/svg">
<path d="M36.4327 21.6218H33.5162C33.4682 21.4189 33.3588 21.2265 33.1907 21.079C32.0593 20.0803 30.7198 19.3188 29.2095 18.8102C28.6519 18.6231 28.0462 18.9156 27.854 19.469C27.6619 20.0223 27.9608 20.6178 28.5211 20.8076C29.1775 21.0289 29.7806 21.3003 30.3382 21.6244H16.3643C15.7746 21.6244 15.2969 22.0961 15.2969 22.6784V29.3793C15.2969 29.9616 15.7746 30.4333 16.3643 30.4333C16.954 30.4333 17.4316 29.9616 17.4316 29.3793V23.7298H21.5141V26.6257C21.5141 27.208 21.9917 27.6797 22.5814 27.6797H30.2155C30.8052 27.6797 31.2828 27.208 31.2828 26.6257V23.7298H35.3653V39.142H16.3643C15.7746 39.142 15.2969 39.6137 15.2969 40.196C15.2969 40.7783 15.7746 41.25 16.3643 41.25H36.4327C37.0224 41.25 37.5 40.7783 37.5 40.196V22.6758C37.5 22.0935 37.0224 21.6218 36.4327 21.6218ZM29.1482 25.5717H23.6488V23.7298H29.1482V25.5717Z" />
<path d="M22.8003 20.1383C26.9415 20.1383 30.6051 17.3873 31.7098 13.4506C31.8672 12.8894 31.5337 12.3097 30.9653 12.1542C30.397 11.9987 29.8099 12.3281 29.6525 12.8894C28.8013 15.917 25.9836 18.0329 22.7976 18.0329C18.8752 18.0329 15.6839 14.8814 15.6839 11.0106C15.6865 7.13449 18.8778 3.98301 22.8003 3.98301C26.0396 3.98301 28.7986 6.1121 29.6418 9.0923H23.5659C22.9762 9.0923 22.4986 9.56397 22.4986 10.1463C22.4986 10.7286 22.9762 11.2003 23.5659 11.2003H34.741C35.3307 11.2003 35.8083 10.7286 35.8083 10.1463C35.8083 9.56397 35.3307 9.0923 34.741 9.0923H31.8405C30.9466 4.91844 27.219 1.875 22.8003 1.875C17.7011 1.875 13.5519 5.97245 13.5519 11.008C13.5519 16.0435 17.7011 20.1383 22.8003 20.1383Z" />
<path d="M12.6392 30.9866C12.4284 31.5294 12.7033 32.1408 13.253 32.3489L19.9638 34.897C20.0892 34.9444 20.2199 34.9681 20.348 34.9681C20.7776 34.9681 21.1805 34.7099 21.3433 34.2936C21.5541 33.7508 21.2793 33.1394 20.7296 32.9313L14.0188 30.3832C13.4691 30.1724 12.8527 30.4412 12.6392 30.9866Z" />
<path d="M20.5241 38.7731C21.0792 38.7731 21.5461 38.3515 21.5888 37.7955C21.6315 37.2158 21.1886 36.7099 20.6015 36.6677C15.3876 36.2909 10.4673 35.3397 9.63742 34.5571C9.7735 24.2726 13.4718 21.8089 16.6844 20.8128C17.2475 20.6389 17.5596 20.0461 17.3835 19.4927C17.2074 18.9393 16.6071 18.6284 16.044 18.8023C10.3045 20.5836 7.58815 25.6296 7.5001 34.6888C7.48409 36.2883 9.47198 37.2632 14.363 38.0564C17.3675 38.5438 20.3187 38.7599 20.4441 38.7678C20.4708 38.7705 20.4975 38.7731 20.5241 38.7731Z" />
</svg>
