<svg id="Layer_1" xmlns="http://www.w3.org/2000/svg" viewBox="0 0 58 58"><defs><style>.cls-1{fill:#fff;}.cls-2{fill:#ff0a55;}</style></defs><circle class="cls-1" cx="29" cy="29" r="29"/><path class="cls-2" d="M44.68,19.1a13.1,13.1,0,0,1-3.19.92c.51-.09,1.27-1,1.57-1.4a6,6,0,0,0,1.06-1.93c0-.06.05-.13,0-.17a.2.2,0,0,0-.17,0A16.13,16.13,0,0,1,40.15,18a.26.26,0,0,1-.26-.06,2.14,2.14,0,0,0-.33-.34,6.71,6.71,0,0,0-1.84-1.13A6.32,6.32,0,0,0,34.9,16a6.76,6.76,0,0,0-2.67.75,7,7,0,0,0-2.16,1.76,6.5,6.5,0,0,0-1.35,5.31c0,.15,0,.17-.13.15-5.21-.78-9.53-2.64-13-6.63-.16-.18-.24-.18-.36,0-1.54,2.3-.79,6,1.12,7.81.26.24.52.48.8.7a6.8,6.8,0,0,1-2.51-.7c-.15-.1-.23,0-.24.13a3.12,3.12,0,0,0,0,.74,6.68,6.68,0,0,0,4.12,5.33,4,4,0,0,0,.83.26,7.29,7.29,0,0,1-2.46.07c-.18,0-.25.06-.18.23a6.91,6.91,0,0,0,5.18,4.34c.23,0,.47,0,.7.1,0,0,0,0,0,0C22,37.28,20,38,19,38.27a12.59,12.59,0,0,1-5.37.69c-.29,0-.35,0-.43,0s0,.12.08.19c.37.25.74.46,1.12.67A18,18,0,0,0,18,41.26c6.45,1.78,13.72.47,18.57-4.35,3.81-3.78,5.14-9,5.14-14.22,0-.2.25-.32.39-.43a12.57,12.57,0,0,0,2.53-2.62.84.84,0,0,0,.16-.51v0C44.81,19,44.81,19.05,44.68,19.1Z"/></svg>