<svg width="20" height="20" viewBox="0 0 20 20" fill="none" xmlns="http://www.w3.org/2000/svg">
<path fill-rule="evenodd" clip-rule="evenodd" d="M1.37446 3.68475C1.37446 3.40861 1.59832 3.18475 1.87446 3.18475H10.6038C10.8799 3.18475 11.1038 3.40861 11.1038 3.68475C11.1038 3.96089 10.8799 4.18475 10.6038 4.18475H2.37446V13.9015H17.2395V10.6065C17.2395 10.3304 17.4634 10.1065 17.7395 10.1065C18.0157 10.1065 18.2395 10.3304 18.2395 10.6065V14.4015C18.2395 14.6776 18.0157 14.9015 17.7395 14.9015H1.87446C1.59832 14.9015 1.37446 14.6776 1.37446 14.4015V3.68475Z" fill="#A9A9A9"/>
<path fill-rule="evenodd" clip-rule="evenodd" d="M1.39336 14.2653C1.45429 14.0501 1.65077 13.9015 1.87446 13.9015H17.7395C17.9632 13.9015 18.1597 14.0501 18.2206 14.2653L19.5701 19.033C19.6127 19.1837 19.5823 19.3458 19.4878 19.4707C19.3932 19.5957 19.2456 19.6691 19.089 19.6691H0.525029C0.368351 19.6691 0.220733 19.5957 0.126227 19.4707C0.031722 19.3458 0.0012586 19.1837 0.0439283 19.033L1.39336 14.2653ZM2.25259 14.9015L1.18619 18.6691H18.4278L17.3614 14.9015H2.25259Z" fill="#A9A9A9"/>
<path fill-rule="evenodd" clip-rule="evenodd" d="M7.05837 16.5884C7.05837 16.3123 7.28223 16.0884 7.55837 16.0884H12.0556C12.3318 16.0884 12.5556 16.3123 12.5556 16.5884C12.5556 16.8645 12.3318 17.0884 12.0556 17.0884H7.55837C7.28223 17.0884 7.05837 16.8645 7.05837 16.5884Z" fill="#A9A9A9"/>
<path d="M14.7112 6.68554V5.25209C14.2635 5.12476 13.9367 4.93048 13.728 4.67188C13.5193 4.41329 13.4156 4.09824 13.4156 3.72938C13.4156 3.36052 13.5337 3.04154 13.77 2.78688C14.0063 2.53222 14.32 2.38651 14.7125 2.34713V2.00846H15.2087V2.34713C15.571 2.39045 15.8598 2.51384 16.075 2.71862C16.289 2.92339 16.4268 3.19643 16.4859 3.53773L15.6209 3.65062C15.5683 3.38152 15.4318 3.19906 15.21 3.10323V4.44085C15.7574 4.58919 16.1302 4.78084 16.3284 5.01712C16.5266 5.2534 16.6264 5.55532 16.6264 5.92549C16.6264 6.33899 16.5017 6.68685 16.2523 6.96908C16.0028 7.25261 15.655 7.42589 15.21 7.4889V8.12817H14.7138V7.50596C14.3187 7.45739 13.9984 7.31037 13.7529 7.0649C13.5061 6.81812 13.3486 6.47026 13.2803 6.02132L14.173 5.92549C14.2097 6.10796 14.278 6.26548 14.3777 6.39806C14.4788 6.53064 14.5904 6.62647 14.7125 6.68554H14.7112ZM14.7112 3.09273C14.576 3.13867 14.4696 3.21612 14.3896 3.32507C14.3095 3.43403 14.2701 3.55611 14.2701 3.68737C14.2701 3.80814 14.3069 3.92103 14.3791 4.02473C14.4526 4.12843 14.5628 4.21245 14.7112 4.27677V3.09273ZM15.2074 6.73279C15.378 6.70129 15.5172 6.62121 15.6248 6.4952C15.7324 6.36918 15.7863 6.21954 15.7863 6.04889C15.7863 5.89662 15.7416 5.76403 15.651 5.65377C15.5605 5.5435 15.4135 5.45818 15.2074 5.39911V6.73411V6.73279Z" fill="#A9A9A9"/>
<path fill-rule="evenodd" clip-rule="evenodd" d="M9.94975 4.28419C10.3827 1.5329 12.9648 -0.345078 15.7156 0.0876467C18.467 0.520458 20.3464 3.10395 19.9137 5.85486C19.4809 8.60626 16.8986 10.4843 14.1478 10.0516C13.238 9.90761 12.4234 9.5291 11.7562 8.98666L9.80545 9.09861C9.62497 9.10896 9.45296 9.0211 9.35557 8.8688C9.25818 8.7165 9.25057 8.5235 9.33569 8.36401L10.1847 6.77311C9.90609 6.00052 9.81321 5.15007 9.94975 4.28419ZM15.5602 1.0755C13.3544 0.728502 11.2845 2.23451 10.9376 4.43979C10.8171 5.20323 10.9188 5.94896 11.1954 6.61434C11.2529 6.75269 11.2454 6.90953 11.1749 7.04172L10.6372 8.04923L11.8983 7.97685C12.0301 7.9693 12.1594 8.01412 12.2583 8.10155C12.8151 8.59415 13.5127 8.93854 14.3032 9.06376C16.509 9.41075 18.5789 7.90475 18.9258 5.69946C19.2728 3.4937 17.7656 1.42242 15.5602 1.0755Z" fill="#A9A9A9"/>
</svg>
