<?xml version="1.0" encoding="utf-8"?>
<!-- Generator: Adobe Illustrator 25.0.0, SVG Export Plug-In . SVG Version: 6.00 Build 0)  -->
<svg version="1.1" baseProfile="tiny" id="Layer_1" xmlns="http://www.w3.org/2000/svg" xmlns:xlink="http://www.w3.org/1999/xlink"
	 x="0px" y="0px" viewBox="0 0 15.8 22.2" overflow="visible" xml:space="preserve">
<path fill="#FFBA31" stroke="#FF0A55" stroke-width="0.8" stroke-linejoin="round" stroke-miterlimit="10" d="M8.8,9.8
	c-2.3,1.9-2.8,4.3-2.5,7.1c-0.8-0.1-1.4-1.2-1.5-2.9c0,0,0,0.1,0,0.1c-0.8,1.2-1.2,2.6-1.2,4c0,1.4,0.6,2.6,1.7,3.5
	c0,0,0.1,0.1,0.1,0.1c-0.6-0.2-1.2-0.5-1.7-0.8c-1.7-1.2-2.8-2.9-3.2-5c-0.3-2,0-3.9,1.1-5.6c0.7-1,1.4-2,2.1-2.9
	c1-1.4,1.9-2.8,2.2-4.5c0.1-0.7,0.1-1.4,0.2-2c0-0.1,0-0.3,0-0.5c1.8,1,3.2,2.3,4.2,4c1,1.7,1.4,3.6,1.3,5.7
	c0.9-0.6,1.3-1.4,1.4-2.5c0.2,0.4,0.4,0.7,0.6,1c0.8,1.5,1.3,3.1,1.6,4.8c0.5,3.3-1.1,6.5-3.9,8c-0.3,0.2-0.6,0.3-1,0.4
	c0,0,0-0.1,0.1-0.1c2.1-1.6,2.3-4.3,0.9-6.3c-0.4-0.5-0.8-1.1-1.1-1.6C9.4,12.6,8.8,11.3,8.8,9.8z"/>
</svg>
