<svg width="22" height="20" viewBox="0 0 22 20" fill="none" xmlns="http://www.w3.org/2000/svg">
<path d="M19.9059 4.17748V4.16804H3.20052C2.69242 4.16804 2.2793 3.75738 2.2793 3.2523C2.2793 3.02573 2.45975 2.84163 2.68293 2.83219H17.6693C17.902 2.83219 18.0872 2.6481 18.0872 2.4168V0.915742C18.0919 0.410668 17.6788 0 17.1707 0C17.1422 0 17.1185 0 17.09 0L1.91366 1.34057C0.830995 1.43026 0 2.33656 0 3.42223V17.9183C0 19.0654 0.940211 20 2.09411 20H19.9059C21.0645 20 22 19.0654 22 17.9183V6.25915C22 5.10739 21.0598 4.17748 19.9059 4.17748ZM14.749 15.0956V15.0673C14.6208 16.1246 13.9275 17.0356 12.9303 17.4321C12.3177 17.6776 11.6577 17.7909 10.9976 17.7626C10.0812 17.7342 9.17893 17.503 8.36218 17.0876C7.98705 16.8846 7.63566 16.6439 7.30801 16.3701C7.23203 16.3087 7.19404 16.2521 7.27002 16.1529L7.69739 15.5346C7.74487 15.4543 7.84934 15.4307 7.93007 15.4779C7.94431 15.4874 7.95381 15.4968 7.96806 15.5063L8.10101 15.6054C8.93201 16.2662 9.95295 16.6533 11.0166 16.7147C12.4317 16.6958 13.4574 16.068 13.6426 15.1145C13.842 14.0477 12.9873 13.1272 11.3348 12.6174C10.6225 12.3814 9.92445 12.1076 9.24541 11.7914C8.09627 11.1258 7.55493 10.2525 7.63566 9.17158C7.74962 7.67996 9.15519 6.56125 10.9311 6.55653C11.7336 6.55653 12.5314 6.72174 13.2722 7.03328C13.5903 7.17017 13.899 7.33538 14.1886 7.52419C14.2789 7.56667 14.3121 7.67524 14.2694 7.76493C14.2646 7.77437 14.2599 7.78381 14.2504 7.79325C14.1791 7.90654 13.9797 8.23224 13.8895 8.36913C13.8278 8.45882 13.7518 8.47298 13.6426 8.40217C12.8448 7.8735 11.9141 7.58556 10.9549 7.57611C9.73926 7.59972 8.82754 8.31249 8.76581 9.28959C8.75156 10.1723 9.43061 10.8095 10.8694 11.3004C13.8468 12.2445 14.9722 13.3538 14.7585 15.0956H14.749Z" fill="#A9A9A9"/>
</svg>
