<svg version="1.0" xmlns="http://www.w3.org/2000/svg"
 width="20" height="20" viewBox="0 0 230.000000 230.000000"
 preserveAspectRatio="xMidYMid meet">
<g transform="translate(0.000000,230.000000) scale(0.100000,-0.100000)"
fill="#000000" stroke="none">
<path d="M1393 2179 c-56 -27 -136 -108 -193 -196 l-47 -71 -34 71 c-65 135
-159 201 -289 201 -93 0 -153 -28 -223 -103 -68 -73 -90 -127 -85 -211 4 -76
28 -121 89 -165 l33 -25 -215 0 c-203 0 -217 -1 -259 -22 -24 -13 -58 -40 -74
-61 l-31 -39 -3 -196 c-2 -109 0 -212 3 -230 7 -41 68 -110 112 -129 25 -10
123 -13 453 -13 l420 0 0 -350 0 -350 -261 0 -261 0 -29 31 -29 31 0 269 0
269 -95 0 -95 0 0 -278 c0 -317 4 -340 73 -418 23 -26 63 -57 92 -70 l50 -24
655 0 655 0 50 24 c29 13 69 44 92 70 69 78 73 101 73 418 l0 278 -95 0 -95 0
0 -269 0 -269 -29 -31 -29 -31 -236 0 -236 0 0 350 0 350 395 0 c309 0 403 3
428 13 44 19 105 88 112 129 3 18 5 121 3 230 l-3 196 -31 39 c-16 21 -50 48
-74 61 -42 21 -56 22 -246 22 l-203 0 34 56 c57 94 59 187 6 300 -32 69 -88
129 -137 150 -50 21 -141 18 -191 -7z m144 -208 c46 -68 39 -127 -21 -166 -24
-16 -202 -42 -213 -32 -9 10 103 172 143 206 43 38 61 37 91 -8z m-656 6 c23
-15 48 -49 77 -105 24 -46 41 -86 38 -90 -10 -9 -167 28 -224 53 -29 13 -55
31 -58 40 -9 23 42 94 79 110 43 19 49 19 88 -8z m169 -642 l0 -155 -399 0
c-354 0 -400 2 -405 16 -8 20 -8 258 0 278 5 14 51 16 405 16 l399 0 0 -155z
m1000 0 l0 -155 -375 0 -375 0 0 155 0 155 375 0 375 0 0 -155z"/>
</g>
</svg>
