<svg width="24" height="23" viewBox="0 0 24 23" fill="none" xmlns="http://www.w3.org/2000/svg">
	<path d="M19.9846 16.4289C17.4868 18.4763 14.7842 20.278 11.9997 21.9159C11.754 22.0797 11.1808 22.2845 11.017 22.0388C10.8532 21.7931 11.058 21.097 11.2627 20.1142C11.5084 19.1315 10.1571 18.9677 10.1571 18.9677C4.71093 18.2715 0.575195 14.4224 0.575195 9.79524C0.575195 4.6767 5.69369 0.5 11.9997 0.5C18.3058 0.5 23.4244 4.6767 23.4244 9.79524C23.4244 12.4569 21.9911 14.7909 19.9846 16.4289Z" fill="white"/>
	<path d="M9.50222 7.25647H8.68326C8.56041 7.25647 8.47852 7.33835 8.47852 7.42025V12.375C8.47852 12.4569 8.56041 12.5388 8.68326 12.5388H9.50222C9.62507 12.5388 9.70696 12.4569 9.70696 12.375V7.42025C9.66602 7.33835 9.58412 7.25647 9.50222 7.25647Z" fill="#00B900"/>
	<path d="M15.0707 7.25647H14.2518C14.1289 7.25647 14.047 7.33835 14.047 7.42025V10.4914L11.6311 7.29741L11.5901 7.25647H11.5492H10.7711C10.6483 7.25647 10.5664 7.33835 10.5664 7.42025V12.375C10.5664 12.4569 10.6483 12.5388 10.7711 12.5388H11.5901C11.713 12.5388 11.7949 12.4569 11.7949 12.375V9.26292L14.2109 12.4978L14.2518 12.5388H14.2927C14.3337 12.5388 14.3337 12.5388 14.3337 12.5388H15.1117C15.2345 12.5388 15.3164 12.4569 15.3164 12.375V7.42025C15.2755 7.33835 15.1936 7.25647 15.0707 7.25647Z" fill="#00B900"/>
	<path d="M7.53627 11.3922H5.28411V7.42025C5.28411 7.33835 5.20222 7.25647 5.07937 7.25647H4.26041C4.13756 7.25647 4.05566 7.33835 4.05566 7.42025V12.375C4.05566 12.416 4.0557 12.4569 4.09665 12.4978C4.1376 12.5388 4.17847 12.5388 4.21942 12.5388H7.45439C7.57724 12.5388 7.65913 12.4569 7.65913 12.375V11.597C7.74103 11.4741 7.65911 11.3922 7.53627 11.3922Z" fill="#00B900"/>
	<path d="M19.5754 7.25647H16.3405C16.2996 7.25647 16.2586 7.25646 16.2176 7.29741C16.1767 7.33836 16.1768 7.3793 16.1768 7.42025V12.375C16.1768 12.416 16.1767 12.4569 16.2176 12.4978C16.2586 12.5388 16.2996 12.5388 16.3405 12.5388H19.5754C19.6982 12.5388 19.7801 12.4569 19.7801 12.375V11.597C19.7801 11.5151 19.6982 11.4332 19.5754 11.4332H17.3232V10.5323H19.5754C19.6982 10.5323 19.7801 10.4504 19.7801 10.3685V9.5905C19.7801 9.50861 19.6982 9.42672 19.5754 9.42672H17.3232V8.52586H19.5754C19.6982 8.52586 19.7801 8.44395 19.7801 8.36205V7.58405C19.7392 7.33836 19.6573 7.25647 19.5754 7.25647Z" fill="#00B900"/>
</svg>
