<svg width="20" height="20" viewBox="0 0 20 20" fill="none" xmlns="http://www.w3.org/2000/svg">
<path d="M20 7.62261H16.0914C15.7962 7.62261 15.557 7.38373 15.557 7.08881C15.557 6.79389 15.7962 6.55501 16.0914 6.55501H18.9313V1.74685C18.9313 1.37186 18.6268 1.06759 18.2514 1.06759H1.7486C1.37323 1.06759 1.06866 1.37186 1.06866 1.74685V6.55501H4.7128C5.00801 6.55501 5.24713 6.79389 5.24713 7.08881C5.24713 7.38373 5.00801 7.62261 4.7128 7.62261H0V1.74685C0 0.783346 0.78413 0 1.7486 0H18.2514C19.2159 0 20 0.783346 20 1.74685V7.62261Z" fill="#A9A9A9"/>
<path d="M12.1881 14.8609H6.83142C5.36869 14.8609 4.17847 13.6718 4.17847 12.2106V2.93588L4.72081 2.92787H15.6666L15.6746 3.46967V5.48609C15.6746 5.78101 15.4355 6.01988 15.1403 6.01988C14.845 6.01988 14.6059 5.78101 14.6059 5.48609V3.99546H5.24713V12.2106C5.24713 13.0833 5.95779 13.7933 6.83142 13.7933H12.1881C12.4833 13.7933 12.7224 14.0322 12.7224 14.3271C12.7224 14.622 12.4833 14.8609 12.1881 14.8609Z" fill="#A9A9A9"/>
<path d="M13.6455 19.9987C13.3503 19.9987 13.1111 19.7598 13.1111 19.4649V18.9764C12.6757 18.5134 11.5936 17.1816 11.7152 15.4828C11.806 14.2177 11.0286 11.3952 10.7227 10.4144C10.6652 10.2329 10.7093 10.0354 10.8389 9.89524C10.9685 9.75512 11.1608 9.69374 11.3465 9.73377C11.3973 9.74445 12.5835 10.0087 13.4251 10.74C13.8111 11.0749 14.2212 11.594 14.5792 12.1025L14.6059 5.23253C14.6059 4.99366 14.7676 4.78415 14.9987 4.72009C15.2298 4.65603 15.4756 4.75479 15.5984 4.95896C15.9284 5.50477 18.8165 10.3543 18.8165 12.4495C18.8165 13.9254 17.8507 17.2256 17.6757 17.8114L17.7251 19.4355C17.7344 19.7304 17.502 19.976 17.2068 19.9853C16.9156 19.996 16.6658 19.7625 16.6564 19.4675L16.6043 17.7567C16.603 17.6993 16.6097 17.6406 16.627 17.5859C16.6377 17.5485 17.7465 13.88 17.7465 12.4495C17.7465 11.3618 16.6204 9.01448 15.6666 7.24495L15.6399 13.9374C15.6399 14.1803 15.4742 14.3911 15.2391 14.4525C15.004 14.5139 14.7569 14.4085 14.6393 14.1963C14.3401 13.6625 13.4117 12.1452 12.7224 11.5473C12.514 11.3659 12.2696 11.2217 12.0345 11.1083C12.3711 12.336 12.864 14.3818 12.7799 15.5602C12.6676 17.1255 13.9901 18.3506 14.0035 18.3626C14.1143 18.464 14.1771 18.6068 14.1771 18.7576V19.4662C14.1771 19.7611 13.938 20 13.6428 20L13.6455 19.9987Z" fill="#A9A9A9"/>
<path d="M9.70478 12.6163H6.39327V9.30807H9.70478V12.6163ZM7.46193 11.5487H8.63612V10.3757H7.46193V11.5487Z" fill="#A9A9A9"/>
<path d="M6.9276 8.80763C6.63238 8.80763 6.39327 8.56876 6.39327 8.27384V5.71429C6.39327 5.41936 6.63238 5.18049 6.9276 5.18049C7.22282 5.18049 7.46193 5.41936 7.46193 5.71429V8.27384C7.46193 8.56876 7.22282 8.80763 6.9276 8.80763Z" fill="#A9A9A9"/>
<path d="M8.39701 8.82765C8.10179 8.82765 7.86268 8.58878 7.86268 8.29385V6.95536C7.86268 6.66044 8.10179 6.42157 8.39701 6.42157C8.69223 6.42157 8.93134 6.66044 8.93134 6.95536V8.29385C8.93134 8.58878 8.69223 8.82765 8.39701 8.82765Z" fill="#A9A9A9"/>
</svg>
