<svg id="Layer_1" xmlns="http://www.w3.org/2000/svg" viewBox="0 0 58 58"><defs><style>.cls-1{fill:#fff;}.cls-2{fill:#ff0a55;}</style></defs><circle class="cls-1" cx="29" cy="29" r="29" transform="translate(-3.33 3.76) rotate(-7.02)"/><path class="cls-2" d="M38,18.07a2,2,0,1,0,2,2A2,2,0,0,0,38,18.07Z"/><path class="cls-2" d="M29.14,20.63A8.37,8.37,0,1,0,37.51,29,8.37,8.37,0,0,0,29.14,20.63Zm0,13.73A5.36,5.36,0,1,1,34.5,29,5.36,5.36,0,0,1,29.14,34.36Z"/><path class="cls-2" d="M35.79,46H22.21A10.22,10.22,0,0,1,12,35.79V22.21A10.22,10.22,0,0,1,22.21,12H35.79A10.22,10.22,0,0,1,46,22.21V35.79A10.22,10.22,0,0,1,35.79,46ZM22.21,15.2a7,7,0,0,0-7,7V35.79a7,7,0,0,0,7,7H35.79a7,7,0,0,0,7-7V22.21a7,7,0,0,0-7-7Z"/></svg>