<svg id="Layer_1" xmlns="http://www.w3.org/2000/svg" viewBox="0 0 24 11.64">
  <g id="Text">
    <path d="M2.52,5.41H1.61V1.15H3c.92,0,1.56.49,1.56,1.36a1.26,1.26,0,0,1-.85,1.28L4.89,5.46H3.81L2.76,3.85H2.52Zm0-2.31H3a.57.57,0,0,0,.63-.5V2.53A.56.56,0,0,0,3.07,2H2.52Z"/>
    <path d="M5.87,4a.87.87,0,0,0,.82.61c.3,0,.55-.15.55-.42s-.15-.36-.45-.46l-.51-.18a1.29,1.29,0,0,1-1-1.22A1.28,1.28,0,0,1,6.55,1.07h.13A1.57,1.57,0,0,1,8.13,2l-.76.44a.76.76,0,0,0-.67-.51c-.29,0-.48.15-.48.37s.15.33.41.42l.56.22c.69.26,1,.64,1,1.22A1.38,1.38,0,0,1,6.78,5.5H6.69a1.63,1.63,0,0,1-1.6-1Z"/>
    <path d="M15.12,1.15V5.41h-.89V2.67L13,5.41h-.6L11.13,2.68V5.41h-.89V1.15h1.11l1.34,3,1.35-3Z"/>
    <path d="M19.06,2.4v3h-.88V5a1.14,1.14,0,0,1-1,.48,1.49,1.49,0,0,1-1.43-1.54v0a1.48,1.48,0,0,1,1.4-1.57h0a1.15,1.15,0,0,1,1,.46V2.4ZM17.44,4.69a.78.78,0,1,0-.77-.79h0a.76.76,0,0,0,.76.78Z"/>
    <path d="M20.73,1.15V5.41h-.89V1.15Z"/>
    <path d="M22.4,1.15V5.41h-.89V1.15Z"/>
    <path d="M3,6.34A1.34,1.34,0,0,1,4.52,7.47,1.33,1.33,0,0,1,3.4,9,1.34,1.34,0,0,1,3,9H2.48v1.44H1.6V6.34ZM2.49,8.21H3a.54.54,0,0,0,.54-.54A.54.54,0,0,0,3,7.13H2.48Z"/>
    <path d="M5.93,6.34V9.61H7.36v.82H5.05V6.34Z"/>
    <path d="M7.74,8.79V6.34h.89V8.79c0,.56.27.9.76.9s.75-.34.75-.9V6.34H11V8.79a1.56,1.56,0,0,1-1.41,1.7H9.36A1.56,1.56,0,0,1,7.73,9,1.48,1.48,0,0,1,7.74,8.79Z"/>
    <path d="M12.33,9.1a.87.87,0,0,0,.79.59c.29,0,.53-.15.53-.41s-.14-.34-.43-.44l-.49-.18a1.21,1.21,0,0,1,.36-2.39,1.5,1.5,0,0,1,1.39.88l-.73.42a.75.75,0,0,0-.64-.49c-.27,0-.46.15-.46.36s.15.31.4.41l.53.2c.66.25,1,.61,1,1.17a1.33,1.33,0,0,1-1.34,1.3h-.1a1.57,1.57,0,0,1-1.53-1Z"/>
  </g>
</svg>
