<svg
	xmlns="http://www.w3.org/2000/svg" viewBox="0 0 100 100">
	<defs>
		<style>.cls-phone-1{fill:#f8c201;}.cls-phone-2{fill:#f7f7f5;}</style>
	</defs>
	<title>Icon New Web Final 2</title>
	<g id="Layer_4">
		<circle class="cls-phone-1" cx="50" cy="50" r="50"/>
		<path class="cls-phone-2" d="M50,18h0A32,32,0,0,0,18,50h0A32,32,0,0,0,50,82h0A32,32,0,0,0,82,50h0A32,32,0,0,0,50,18ZM64.34,63.26a3.69,3.69,0,0,1-4,3.66A30.21,30.21,0,0,1,35.86,49.83a29.68,29.68,0,0,1-2.79-10.16c0-.11,0-.23,0-.34a3.66,3.66,0,0,1,3.68-3.68h4.93a3.66,3.66,0,0,1,3.65,3.25A18.61,18.61,0,0,0,46,42.12a3.69,3.69,0,0,1-.91,3.68l-2,2a23.06,23.06,0,0,0,9.12,9.12l2-2A3.67,3.67,0,0,1,57.87,54a17.54,17.54,0,0,0,3.22.67,3.67,3.67,0,0,1,3.25,3.65ZM48.13,40.55a1.51,1.51,0,0,1,2-.7,22.36,22.36,0,0,1,10,9.75,1.53,1.53,0,0,1-.65,2,1.6,1.6,0,0,1-.7.17A1.52,1.52,0,0,1,57.42,51a19.32,19.32,0,0,0-8.59-8.42A1.51,1.51,0,0,1,48.13,40.55ZM64.21,51.7a1.6,1.6,0,0,1-.57.11,1.51,1.51,0,0,1-1.4-1A23.65,23.65,0,0,0,48.93,37.79a1.53,1.53,0,0,1-.87-2A1.51,1.51,0,0,1,50,35a26.72,26.72,0,0,1,15,14.76A1.53,1.53,0,0,1,64.21,51.7Z"/>
	</g>
</svg>