<svg
	xmlns="http://www.w3.org/2000/svg" viewBox="0 0 100 100">
	<defs>
		<style>.cls-line-1{fill:#02ae92;}.cls-line-2{fill:#f7f7f5;}</style>
	</defs>
	<title>Icon New Web Final 2</title>
	<g id="Layer_4">
		<circle class="cls-line-1" cx="50" cy="50" r="50"/>
		<path class="cls-line-2" d="M80.46,40.54a28.32,28.32,0,0,0-9.39-11.89A34.17,34.17,0,0,0,47.48,22a34.21,34.21,0,0,0-17.55,5.84A28.67,28.67,0,0,0,20,39a21.66,21.66,0,0,0-1.58,15,22.8,22.8,0,0,0,3.75,7.51,30.89,30.89,0,0,0,6.61,6.55,30.16,30.16,0,0,0,10.29,5,44,44,0,0,0,6.21,1.11,3.93,3.93,0,0,1,.74.12l0,0,.09,0v.06c0,.08,0,.2,0,.35V75a12,12,0,0,1-.06,1.93l-.09.59a8,8,0,0,0-.15,2.35A4,4,0,0,0,46.23,81a2.88,2.88,0,0,0,1.07,1.24l0,0a2.94,2.94,0,0,0,1.56.42,3.55,3.55,0,0,0,.46,0,4.6,4.6,0,0,0,1.31-.41A43.05,43.05,0,0,0,56.59,79c5.83-3.66,12-7.65,17.09-12.65,3.72-3.61,6-6.93,7.3-10.46A21.72,21.72,0,0,0,80.46,40.54ZM38.17,55.93H32.09a1.73,1.73,0,0,1-1.74-1.73V42.41a1.74,1.74,0,0,1,3.47,0V52.47h4.35a1.73,1.73,0,0,1,0,3.46Zm6.3-1.73a1.74,1.74,0,0,1-3.47,0V42.41a1.74,1.74,0,0,1,3.47,0ZM59,54.2v0a.28.28,0,0,1,0,.09v.09a.22.22,0,0,0,0,.08s0,.06,0,.09a.64.64,0,0,0,0,.07l0,.09a.19.19,0,0,1,0,.07.36.36,0,0,1,0,.09l0,.07,0,.08a.43.43,0,0,0,0,.07l0,.07-.05.07,0,.06-.06.06-.06.07-.06,0-.07.06,0,0h0a1.35,1.35,0,0,1-.22.14h0l-.22.1h0l-.23.06h-.06a1,1,0,0,1-.24,0H57l-.15,0h0l-.14,0,0,0-.12,0-.06,0-.1-.05-.06,0-.11-.08,0,0L56,55.42l0,0-.1-.11v0L50,47.57V54.2a1.74,1.74,0,0,1-3.47,0V42.29a.28.28,0,0,1,0-.09s0-.05,0-.07a.3.3,0,0,1,0-.1s0,0,0-.06l0-.1,0-.07,0-.08a.3.3,0,0,1,0-.08l0-.07.05-.08,0-.06.06-.08,0-.06.06-.06.06-.06.06-.06.08-.06,0,0,0,0,.09-.06.06,0,.09,0,.06,0,.09,0,.07,0,.09,0,.08,0H48l.09,0h.5l.1,0,.06,0,.1,0,.07,0,.08,0,.08,0,.07,0,.08.05.06,0,.08,0,.06.05.06.06.06.06.06.06.06.07,0,0,5.82,7.69V42.41a1.74,1.74,0,0,1,3.47,0Zm9.8-7.63a1.74,1.74,0,0,1,0,3.47H64.43v2.43h4.35a1.73,1.73,0,1,1,0,3.46H62.7A1.73,1.73,0,0,1,61,54.2V42.41a1.73,1.73,0,0,1,1.74-1.73h6.17a1.74,1.74,0,1,1,0,3.47H64.43v2.42Z"/>
	</g>
</svg>